<svg width="157" height="84" viewBox="0 0 157 84" fill="none" xmlns="http://www.w3.org/2000/svg">
<path d="M57.7888 6.6C57.7088 7.2 57.5288 7.92 57.2488 8.7L59.2088 10.96C59.5488 11.36 59.7888 11.54 60.2488 11.86C60.5888 12.08 60.7688 12.3 60.8688 12.8L60.9888 13.44C61.0488 13.76 60.9888 13.92 60.7888 14C60.5488 14.1 60.3688 14.08 60.1888 13.84L56.8888 9.6C56.1688 11.22 55.0288 12.96 53.4088 14.3C53.2488 14.44 53.0888 14.52 52.9688 14.54C52.6488 14.56 52.4888 14.46 52.3888 14.24C52.3088 14.06 52.4288 13.84 52.5288 13.76C55.3088 11.48 56.5288 7.94 56.5488 6.04C56.5488 5.9 56.5088 5.68 56.4088 5.58C56.2688 5.46 56.0888 5.3 55.8488 5.16C55.3888 5.18 54.9088 5.22 54.3488 5.26C53.7488 5.3 53.2888 5.24 53.1688 5.18C53.0288 5.08 52.9488 4.94 52.9888 4.74L53.1088 4C54.0288 4.12 54.9288 4.14 55.8088 4.18C56.5688 4.24 58.3288 4.04 59.1688 3.96C59.9088 3.88 60.2288 3.86 60.4888 4.02L60.9688 4.32C61.3688 4.56 61.4288 4.7 61.2688 5C61.1088 5.28 61.0088 5.34 60.6888 5.28C60.5088 5.24 60.0488 5.12 59.6288 5.1C58.7888 5.04 58.0288 5.04 57.2088 5.08C57.4288 5.24 57.6288 5.42 57.7288 5.54C57.8288 5.7 57.8688 5.94 57.7888 6.6ZM64.3288 3.08V16.48C64.3288 17.24 63.6888 18.22 63.5288 18.46C63.4088 18.62 63.1088 18.56 63.1088 18.4V9L60.5088 9.1C60.2088 9.12 60.0288 9.04 59.9088 8.84L59.4888 8.22C59.3688 8.04 59.5488 7.8 59.8488 7.88L60.3088 7.98C60.5088 8.02 60.8888 8.02 61.0088 8.02L63.1088 7.96V3.5C63.1088 2.94 62.8088 2.7 62.4488 2.38C62.1888 2.16 62.4888 1.58 62.8288 1.74L63.7088 2.14C64.3088 2.42 64.3288 2.56 64.3288 3.08ZM67.8688 1.76V17.26C67.8688 18.02 67.2088 19 67.0488 19.24C66.9288 19.4 66.6288 19.34 66.6288 19.18V2.18C66.6288 1.66 66.3688 1.38 65.9888 1.08C65.7088 0.859999 66.0288 0.28 66.3688 0.439999L67.2288 0.84C67.8488 1.12 67.8688 1.28 67.8688 1.76ZM82.168 2.4V15.04L84.728 15.3V16H78.408V15.3L80.888 15.04V4.18L78.508 5.2L78.248 4.56L81.628 2.4H82.168ZM92.2281 16.1C92.2281 13.92 93.9281 12.46 96.2481 12.46C98.4681 12.46 100.208 13.92 100.208 16.1C100.208 18.2 98.5681 19.68 96.2481 19.68C93.9281 19.68 92.2281 18.2 92.2281 16.1ZM92.7881 5.18C92.6481 5.66 92.4481 6.12 92.2081 6.58L94.5681 8.34C94.9881 8.66 95.2681 8.76 95.7681 8.96C96.1681 9.12 96.3481 9.26 96.5681 9.74L96.8481 10.32C96.9681 10.64 96.9281 10.8 96.7681 10.92C96.5481 11.1 96.4081 11.08 96.1481 10.88L91.7681 7.34C90.8081 8.76 89.3881 10.08 87.7481 11.14C87.5481 11.26 87.1881 11.48 86.9281 11.34C86.6681 11.18 86.6281 10.74 86.8881 10.56C89.9881 8.48 91.4081 6.12 91.5681 4.6C91.5881 4.44 91.5481 4.24 91.4481 4.14C91.3481 4.06 91.2281 3.94 91.0881 3.84C90.3681 3.9 89.7481 3.96 88.8881 4C88.2681 4.04 87.8681 4.02 87.6081 3.86C87.4681 3.74 87.4481 3.64 87.4881 3.4L87.5681 2.66C88.5081 2.8 89.2681 2.86 90.1481 2.88C91.0881 2.9 91.4481 2.86 92.3081 2.82C93.1481 2.78 94.3481 2.66 94.6281 2.62C95.5281 2.48 95.6481 2.54 95.9281 2.7L96.4481 3C96.8281 3.22 96.8081 3.34 96.6081 3.7C96.4681 3.98 96.3881 4.06 96.1281 4C95.8881 3.94 95.4681 3.82 95.0481 3.78C93.9281 3.72 93.5081 3.72 92.4481 3.76C92.6281 3.9 92.7681 4.02 92.8281 4.12C92.9481 4.32 92.9681 4.52 92.7881 5.18ZM96.2481 13.56C94.4681 13.56 93.4681 14.62 93.4681 16.1C93.4681 17.52 94.5481 18.58 96.2481 18.58C98.0081 18.58 98.9681 17.52 98.9681 16.1C98.9681 14.74 98.0281 13.56 96.2481 13.56ZM100.268 1.76V7L101.068 6.96C101.468 6.94 101.668 6.92 102.268 6.74C102.788 6.58 102.948 6.46 103.348 6.7L104.068 7.12C104.268 7.24 104.288 7.44 104.148 7.64L104.048 7.78C103.908 7.98 103.668 8.04 103.408 7.98C103.228 7.94 102.868 7.94 102.748 7.94H100.268V10.14C100.268 10.9 99.6081 11.88 99.4481 12.12C99.3281 12.28 99.0281 12.22 99.0281 12.06V2.18C99.0281 1.66 98.7481 1.38 98.3681 1.08C98.1081 0.859999 98.4081 0.28 98.7481 0.439999L99.6281 0.84C100.228 1.12 100.268 1.28 100.268 1.76Z" fill="white"/>
<g clip-path="url(#clip0_2312_13)">
<path d="M157 41.7836H88.3271V42.2157H157V41.7836Z" fill="#E6D9A4"/>
<path d="M68.6733 41.7836H0V42.2157H68.6733V41.7836Z" fill="#E6D9A4"/>
<path d="M70.7308 44.2643C69.4768 44.2643 68.4563 43.2482 68.4563 41.9996C68.4563 40.751 69.4768 39.735 70.7308 39.735C72.2959 39.735 73.4169 41.8103 73.4639 41.8988L73.5174 41.9996L73.4639 42.1004C73.4169 42.189 72.2951 44.2635 70.7308 44.2635V44.2643ZM70.7308 40.1671C69.7161 40.1671 68.8902 40.9894 68.8902 41.9996C68.8902 43.0099 69.7161 43.8322 70.7308 43.8322C71.859 43.8322 72.7869 42.3978 73.0227 41.9996C72.7869 41.6014 71.859 40.1671 70.7308 40.1671Z" fill="#E6D9A4"/>
<path d="M86.2692 44.2643C84.7049 44.2643 83.5832 42.189 83.5362 42.1012L83.4827 42.0004L83.5362 41.8995C83.5832 41.811 84.7049 39.7357 86.2692 39.7357C87.5233 39.7357 88.5438 40.7518 88.5438 42.0004C88.5438 43.249 87.5233 44.265 86.2692 44.265V44.2643ZM83.9774 41.9996C84.2131 42.3978 85.141 43.8322 86.2692 43.8322C87.2839 43.8322 88.1098 43.0099 88.1098 41.9996C88.1098 40.9894 87.2839 40.1671 86.2692 40.1671C85.141 40.1671 84.2131 41.6014 83.9774 41.9996Z" fill="#E6D9A4"/>
<path d="M70.7308 44.2643C69.4768 44.2643 68.4563 43.2482 68.4563 41.9996C68.4563 40.751 69.4768 39.735 70.7308 39.735C72.2959 39.735 73.4169 41.8103 73.4639 41.8988L73.5174 41.9996L73.4639 42.1004C73.4169 42.189 72.2951 44.2635 70.7308 44.2635V44.2643ZM70.7308 40.1671C69.7161 40.1671 68.8902 40.9894 68.8902 41.9996C68.8902 43.0099 69.7161 43.8322 70.7308 43.8322C71.859 43.8322 72.7869 42.3978 73.0227 41.9996C72.7869 41.6014 71.859 40.1671 70.7308 40.1671Z" fill="#E6D9A4"/>
<path d="M86.2692 44.2643C84.7049 44.2643 83.5832 42.189 83.5362 42.1012L83.4827 42.0004L83.5362 41.8995C83.5832 41.811 84.7049 39.7357 86.2692 39.7357C87.5233 39.7357 88.5438 40.7518 88.5438 42.0004C88.5438 43.249 87.5233 44.265 86.2692 44.265V44.2643ZM83.9774 41.9996C84.2131 42.3978 85.141 43.8322 86.2692 43.8322C87.2839 43.8322 88.1098 43.0099 88.1098 41.9996C88.1098 40.9894 87.2839 40.1671 86.2692 40.1671C85.141 40.1671 84.2131 41.6014 83.9774 41.9996Z" fill="#E6D9A4"/>
<path d="M78.5004 37.0398L78.3991 36.9865C78.3102 36.9397 76.2258 35.8229 76.2258 34.2653C76.2258 33.0167 77.2463 32.0007 78.5004 32.0007C79.7544 32.0007 80.7749 33.0167 80.7749 34.2653C80.7749 35.8236 78.6906 36.9397 78.6016 36.9865L78.5004 37.0398ZM78.5004 32.432C77.4857 32.432 76.6598 33.2544 76.6598 34.2646C76.6598 35.3879 78.1004 36.3118 78.5004 36.5465C78.9003 36.3118 80.3409 35.3879 80.3409 34.2646C80.3409 33.2544 79.515 32.432 78.5004 32.432Z" fill="#E6D9A4"/>
<path d="M78.5004 52C77.2463 52 76.2258 50.984 76.2258 49.7354C76.2258 48.1771 78.3102 47.061 78.3991 47.0142L78.5004 46.9609L78.6016 47.0142C78.6906 47.061 80.7749 48.1779 80.7749 49.7354C80.7749 50.984 79.7544 52 78.5004 52ZM78.5004 47.4535C78.1004 47.6882 76.6598 48.6121 76.6598 49.7354C76.6598 50.7456 77.4857 51.568 78.5004 51.568C79.515 51.568 80.3409 50.7456 80.3409 49.7354C80.3409 48.6121 78.9003 47.6882 78.5004 47.4535Z" fill="#E6D9A4"/>
<path d="M78.5003 47.4211C78.4446 47.4211 78.3889 47.4002 78.347 47.3577L73.1196 42.153C73.0791 42.1127 73.0559 42.0572 73.0559 42.0004C73.0559 41.9435 73.0791 41.888 73.1196 41.8477L78.347 36.643C78.428 36.5624 78.5726 36.5624 78.6536 36.643L83.881 41.8477C83.9215 41.888 83.9447 41.9435 83.9447 42.0004C83.9447 42.0572 83.9215 42.1127 83.881 42.153L78.6536 47.3577C78.611 47.4002 78.556 47.4211 78.5003 47.4211ZM73.5795 41.9996L78.5003 46.899L83.4211 41.9996L78.5003 37.1003L73.5795 41.9996Z" fill="#E6D9A4"/>
<path d="M80.2423 45.6857C80.1866 45.6857 80.1309 45.6648 80.089 45.6223L74.8616 40.4176C74.7769 40.3334 74.7769 40.1966 74.8616 40.1123C74.9462 40.0281 75.0836 40.0281 75.1682 40.1123L80.3956 45.317C80.4802 45.4012 80.4802 45.538 80.3956 45.6223C80.353 45.6648 80.298 45.6857 80.2423 45.6857Z" fill="#E6D9A4"/>
<path d="M81.9855 43.951C81.9298 43.951 81.8741 43.9302 81.8322 43.8877L76.6047 38.683C76.5201 38.5987 76.5201 38.4619 76.6047 38.3777C76.6893 38.2934 76.8267 38.2934 76.9114 38.3777L82.1388 43.5824C82.2234 43.6666 82.2234 43.8034 82.1388 43.8877C82.0961 43.9302 82.0412 43.951 81.9855 43.951Z" fill="#E6D9A4"/>
<path d="M75.0149 43.951C74.9592 43.951 74.9035 43.9302 74.8616 43.8877C74.7769 43.8034 74.7769 43.6666 74.8616 43.5824L80.089 38.3777C80.1736 38.2934 80.311 38.2934 80.3956 38.3777C80.4802 38.4619 80.4802 38.5987 80.3956 38.683L75.1682 43.8877C75.1255 43.9302 75.0706 43.951 75.0149 43.951Z" fill="#E6D9A4"/>
<path d="M76.7571 45.6857C76.7014 45.6857 76.6457 45.6648 76.6037 45.6223C76.5191 45.538 76.5191 45.4012 76.6037 45.317L81.8312 40.1123C81.9158 40.0281 82.0532 40.0281 82.1378 40.1123C82.2224 40.1966 82.2224 40.3334 82.1378 40.4176L76.9104 45.6223C76.8677 45.6648 76.8128 45.6857 76.7571 45.6857Z" fill="#E6D9A4"/>
<path d="M75.0113 40.481C74.9556 40.481 74.8999 40.4601 74.8579 40.4176L74.2562 39.8185C73.6871 39.2518 73.6871 38.3301 74.2562 37.7634C74.5318 37.4891 74.8984 37.3379 75.2883 37.3379C75.6781 37.3379 76.0447 37.4891 76.3203 37.7634L76.922 38.3625C77.0066 38.4468 77.0066 38.5836 76.922 38.6678C76.8374 38.7521 76.7 38.7521 76.6154 38.6678L76.0137 38.0687C75.8198 37.8758 75.5624 37.7699 75.2883 37.7699C75.0142 37.7699 74.7567 37.8765 74.5629 38.0687C74.1629 38.4669 74.1629 39.115 74.5629 39.5132L75.1646 40.1123C75.2492 40.1966 75.2492 40.3334 75.1646 40.4176C75.1219 40.4601 75.0669 40.481 75.0113 40.481Z" fill="#E6D9A4"/>
<path d="M81.994 40.481C81.9383 40.481 81.8826 40.4601 81.8407 40.4176C81.756 40.3334 81.756 40.1966 81.8407 40.1123L82.4424 39.5132C82.6362 39.3202 82.7425 39.0639 82.7425 38.791C82.7425 38.5181 82.6355 38.2617 82.4424 38.0687C82.2486 37.8758 81.9911 37.7699 81.717 37.7699C81.4429 37.7699 81.1854 37.8765 80.9916 38.0687L80.3899 38.6678C80.3053 38.7521 80.1679 38.7521 80.0832 38.6678C79.9986 38.5836 79.9986 38.4468 80.0832 38.3625L80.685 37.7634C80.9605 37.4891 81.3272 37.3379 81.717 37.3379C82.1068 37.3379 82.4735 37.4891 82.749 37.7634C83.0246 38.0378 83.1764 38.4029 83.1764 38.791C83.1764 39.1791 83.0246 39.5442 82.749 39.8185L82.1473 40.4176C82.1046 40.4601 82.0497 40.481 81.994 40.481Z" fill="#E6D9A4"/>
<path d="M75.2883 46.6621C74.8984 46.6621 74.5318 46.5109 74.2562 46.2365C73.6871 45.6698 73.6871 44.7481 74.2562 44.1814L74.8579 43.5823C74.9426 43.4981 75.08 43.4981 75.1646 43.5823C75.2492 43.6666 75.2492 43.8034 75.1646 43.8876L74.5629 44.4867C74.1629 44.8849 74.1629 45.533 74.5629 45.9312C74.7567 46.1242 75.0142 46.23 75.2883 46.23C75.5624 46.23 75.8198 46.1235 76.0137 45.9312L76.6154 45.3321C76.7 45.2479 76.8374 45.2479 76.922 45.3321C77.0066 45.4164 77.0066 45.5532 76.922 45.6374L76.3203 46.2365C76.0447 46.5109 75.6781 46.6621 75.2883 46.6621Z" fill="#E6D9A4"/>
<path d="M81.718 46.6621C81.3282 46.6621 80.9615 46.5109 80.6859 46.2365L80.0842 45.6374C79.9996 45.5532 79.9996 45.4164 80.0842 45.3321C80.1688 45.2479 80.3062 45.2479 80.3909 45.3321L80.9926 45.9312C81.1864 46.1242 81.4439 46.2301 81.718 46.2301C81.9921 46.2301 82.2495 46.1235 82.4434 45.9312C82.6372 45.7383 82.7435 45.4819 82.7435 45.209C82.7435 44.9361 82.6365 44.6797 82.4434 44.4868L81.8416 43.8877C81.757 43.8034 81.757 43.6666 81.8416 43.5824C81.9263 43.4981 82.0637 43.4981 82.1483 43.5824L82.75 44.1815C83.0255 44.4558 83.1774 44.8209 83.1774 45.209C83.1774 45.5971 83.0255 45.9622 82.75 46.2365C82.4745 46.5109 82.1078 46.6621 81.718 46.6621Z" fill="#E6D9A4"/>
</g>
<path d="M32.0245 65.76V74.04L32.8245 74C33.2245 73.98 33.4245 73.96 34.0245 73.78C34.5445 73.62 34.7045 73.5 35.1045 73.74L35.8245 74.16C36.0245 74.28 36.0445 74.48 35.9045 74.68L35.8045 74.82C35.6645 75.02 35.4245 75.08 35.1645 75.02C34.9845 74.98 34.6245 74.98 34.5045 74.98H32.0245V81.26C32.0245 82.02 31.3645 83 31.2045 83.24C31.0845 83.4 30.7845 83.34 30.7845 83.18V66.18C30.7845 65.66 30.5245 65.38 30.1445 65.08C29.8645 64.86 30.1845 64.28 30.5245 64.44L31.3845 64.84C32.0045 65.12 32.0245 65.28 32.0245 65.76ZM19.7645 77.5V69.96C19.7645 69.42 19.7445 69.12 19.3245 68.94C19.0245 68.82 18.8845 68.74 18.8845 68.44V68.14L20.1245 68.26C21.0245 68.34 21.0045 68.9 21.0045 69.62V76.94C21.0045 77.1 21.1445 77.16 21.2045 77.16C24.0845 77.06 27.1045 76.34 28.6845 75.42C28.8045 75.36 29.0045 75.34 29.2445 75.52C29.6245 75.78 29.5645 76 29.0845 76.28C26.6445 77.66 24.0245 78.1 21.3445 78.38C21.1845 78.4 20.9045 78.42 20.7245 78.42C20.3645 78.42 19.7645 77.9 19.7645 77.5ZM51.0877 65.76V81.26C51.0877 82.02 50.4277 83 50.2677 83.24C50.1477 83.4 49.8477 83.34 49.8477 83.18V66.18C49.8477 65.66 49.5877 65.38 49.2077 65.08C48.9277 64.86 49.2477 64.28 49.5877 64.44L50.4477 64.84C51.0677 65.12 51.0877 65.28 51.0877 65.76ZM38.3077 70.98C38.3077 68.84 39.6877 67.14 42.3077 67.14C44.8677 67.14 46.2877 68.84 46.2877 70.98C46.2877 73.08 44.8277 74.8 42.3077 74.8C39.8077 74.8 38.3077 73.08 38.3077 70.98ZM42.3077 68.26C40.4277 68.26 39.5877 69.5 39.5877 70.98C39.5877 72.44 40.4277 73.68 42.3077 73.68C44.1877 73.68 45.0077 72.48 45.0077 70.98C45.0077 69.5 44.2877 68.26 42.3077 68.26ZM48.5877 76.96C46.3477 77.84 43.0077 78.3 41.2277 78.52C40.4277 78.64 38.7277 78.74 37.7877 78.72C37.5677 78.72 37.1877 78.72 36.8277 78.56C36.6677 78.5 36.6277 78.32 36.6877 78.02L36.8077 77.46C37.8677 77.64 39.5877 77.6 41.1277 77.5C43.0477 77.32 46.0077 76.86 47.9677 76.18C48.0877 76.14 48.3277 76.28 48.4877 76.36C48.7277 76.46 48.8877 76.84 48.5877 76.96ZM73.9269 65.76V74.1L75.0069 74.06C75.4069 74.04 75.6069 74.02 76.2069 73.84C76.7269 73.68 76.8869 73.56 77.2869 73.8L78.0069 74.22C78.2069 74.34 78.2269 74.54 78.0869 74.74L77.9869 74.88C77.8469 75.08 77.6069 75.14 77.3469 75.08C77.1669 75.04 76.8069 75.04 76.6869 75.04H73.9269V81.26C73.9269 82.02 73.2669 83 73.1069 83.24C72.9869 83.4 72.6869 83.34 72.6869 83.18V66.18C72.6869 65.66 72.4269 65.38 72.0469 65.08C71.7669 64.86 72.0869 64.28 72.4269 64.44L73.2869 64.84C73.9069 65.12 73.9269 65.28 73.9269 65.76ZM66.4869 69.34C66.2869 70.48 65.9269 71.54 65.4869 72.52L68.4269 75.38C68.8069 75.74 69.0669 75.86 69.4669 76.14C69.8469 76.36 70.0269 76.52 70.1669 77.04L70.3269 77.68C70.4269 78.02 70.3469 78.16 70.1669 78.26C69.9269 78.38 69.7669 78.36 69.5469 78.14L65.1269 73.28C63.7469 75.98 61.8069 77.92 60.8869 78.58C60.7269 78.68 60.5669 78.74 60.4469 78.76C60.2669 78.76 60.0269 78.64 59.9669 78.38C59.9269 78.2 60.0069 78.04 60.1069 77.96C61.9069 76.62 64.7669 72.94 65.2069 69.26C65.2269 69.06 65.2069 68.96 64.8869 68.7L64.5069 68.44C64.2469 68.26 64.5269 67.7 64.7669 67.76C65.2869 67.9 65.8669 68.1 66.2469 68.28C66.5469 68.46 66.6069 68.64 66.4869 69.34ZM88.41 68.64C88.23 68.98 88.01 69.3 87.77 69.6L90.95 71.16C91.41 71.36 91.73 71.4 92.19 71.52C92.61 71.62 92.85 71.68 93.15 72.1L93.55 72.64C93.77 72.92 93.75 73.08 93.59 73.24C93.43 73.46 93.23 73.48 92.95 73.38L87.21 70.24C85.49 72 83.03 73.14 82.11 73.46C81.93 73.52 81.73 73.56 81.63 73.54C81.43 73.5 81.25 73.44 81.25 73.16C81.25 72.96 81.37 72.82 81.47 72.78C83.01 72.18 86.05 70.52 87.11 68.54C87.19 68.4 87.19 68.22 86.97 68.06L86.19 67.5L83.49 67.7C82.89 67.74 82.43 67.66 82.31 67.56C82.15 67.46 82.09 67.36 82.13 67.12L82.23 66.32C83.17 66.48 83.89 66.54 84.77 66.56C85.71 66.58 86.71 66.54 87.67 66.5C88.49 66.46 90.51 66.28 90.79 66.26C91.69 66.2 91.91 66.16 92.15 66.32L92.61 66.62C93.03 66.9 93.11 67 92.93 67.34C92.79 67.62 92.67 67.72 92.35 67.66C92.17 67.62 91.71 67.5 91.29 67.46C90.09 67.38 89.01 67.36 87.73 67.42H87.69L88.17 67.62C88.47 67.76 88.73 68.06 88.41 68.64ZM90.61 75.94L87.87 76.02C88.35 76.28 88.37 76.66 88.37 77.1V81.56C88.37 82.06 87.77 83.04 87.59 83.28C87.49 83.42 87.13 83.38 87.13 83.2V77.32C87.13 76.58 86.91 76.34 86.55 76.04L82.77 76.14L80.51 76.22C80.03 76.24 79.23 76.28 78.87 76.16C78.71 76.12 78.61 75.88 78.67 75.56L78.81 74.88C79.87 75.1 82.29 75.16 82.77 75.16C86.13 75.18 88.89 75.04 90.99 74.98C91.79 74.96 93.65 74.82 93.93 74.8C94.77 74.7 95.29 74.66 95.51 74.86L96.17 75.46C96.37 75.64 96.37 75.78 96.31 75.9C96.25 76.06 96.11 76.24 95.93 76.2L94.67 76C93.67 75.88 91.67 75.92 90.61 75.94ZM111.369 76.8L108.929 76.84C108.629 76.84 108.269 76.86 107.969 76.88C107.729 76.9 107.209 76.9 106.929 76.78C106.749 76.7 106.629 76.54 106.669 76.34L106.809 75.56C108.389 75.8 110.349 75.78 111.269 75.76L115.749 75.66C115.949 75.66 116.189 75.68 116.289 75.8C116.369 75.88 116.449 76 116.449 76.32V79.12C116.449 79.58 116.189 79.82 115.549 79.82L108.549 79.9V81.56C108.549 81.98 108.549 82.22 109.029 82.22H112.709C113.889 82.22 115.009 82.04 115.469 81.92C115.769 81.84 115.889 81.84 116.149 81.94L116.849 82.22C117.249 82.36 117.309 82.44 117.229 82.82C117.149 83.26 117.049 83.28 116.669 83.28H108.969C108.369 83.28 107.309 83.16 107.309 82.1V80.74C107.309 80.18 107.349 79.88 106.929 79.7C106.669 79.58 106.489 79.34 106.489 79.06V78.7L107.669 78.8L108.009 78.86L114.789 78.76C115.129 78.76 115.209 78.68 115.209 78.32V77.14C115.209 76.76 115.189 76.76 114.809 76.76L111.369 76.8ZM109.449 69.06C109.249 69 109.049 68.86 109.089 68.54L109.129 68.16L110.389 68.28C111.049 68.34 111.089 68.78 111.089 69.04V72.32C111.909 72.16 112.709 71.94 113.449 71.66C113.549 71.62 113.809 71.74 113.949 71.82C114.209 71.96 114.369 72.34 114.069 72.44C111.829 73.3 109.669 73.64 107.669 73.88C106.869 73.98 105.089 74.1 104.169 74.08C103.929 74.08 103.549 74.08 103.189 73.92C103.049 73.86 103.009 73.68 103.069 73.4L103.169 72.8C103.769 72.92 104.689 72.96 105.629 72.96V70.4C105.629 69.88 105.629 69.68 105.209 69.56C105.009 69.5 104.809 69.36 104.849 69.04L104.889 68.66L106.149 68.78C106.809 68.84 106.849 69.28 106.849 69.54V72.9L107.569 72.84C108.269 72.78 109.049 72.68 109.869 72.54V69.9C109.869 69.38 109.869 69.18 109.449 69.06ZM116.629 65.76V70.08L117.449 70.04C117.849 70.02 118.049 70 118.649 69.82C119.169 69.66 119.329 69.54 119.729 69.78L120.449 70.2C120.649 70.32 120.689 70.52 120.529 70.72L120.429 70.86C120.289 71.06 120.049 71.12 119.789 71.06C119.609 71.02 119.249 71.02 119.129 71.02H116.629V72.66C116.629 73.42 115.969 74.4 115.809 74.64C115.689 74.8 115.389 74.74 115.389 74.58V66.18C115.389 65.66 115.129 65.38 114.749 65.08C114.469 64.86 114.789 64.28 115.129 64.44L115.989 64.84C116.609 65.12 116.629 65.28 116.629 65.76ZM108.109 67.44C106.869 67.48 106.249 67.54 105.009 67.62C104.389 67.66 103.969 67.6 103.729 67.46C103.569 67.38 103.549 67.24 103.589 67.04L103.729 66.28C104.669 66.44 105.589 66.52 106.469 66.52C107.169 66.52 107.429 66.5 108.309 66.44C109.349 66.38 110.569 66.32 110.849 66.28C111.749 66.16 111.869 66.16 112.149 66.34L112.649 66.66C112.989 66.88 113.009 67 112.829 67.32C112.669 67.6 112.589 67.68 112.349 67.62C112.109 67.56 111.689 67.48 111.269 67.44C110.069 67.34 109.389 67.4 108.109 67.44ZM126.572 71.02C126.452 71.48 126.252 72 125.992 72.56L128.752 75.24C129.132 75.6 129.392 75.74 129.792 76C130.172 76.22 130.352 76.36 130.492 76.92L130.652 77.52C130.752 77.86 130.672 78.04 130.492 78.12C130.252 78.24 130.092 78.22 129.872 78L125.612 73.32C124.672 75.08 123.192 77.02 121.372 78.3C121.172 78.46 121.032 78.52 120.912 78.52C120.592 78.52 120.432 78.44 120.332 78.16C120.272 78.02 120.392 77.78 120.492 77.74C123.492 75.66 125.212 72.04 125.452 70.36C125.472 70.2 125.412 70.02 125.312 69.9C125.192 69.8 124.992 69.64 124.772 69.5C123.972 69.54 123.172 69.6 122.392 69.68C121.792 69.72 121.332 69.64 121.212 69.54C121.052 69.44 120.992 69.34 121.032 69.1L121.132 68.3C122.072 68.46 122.992 68.52 123.872 68.54C124.812 68.56 125.092 68.52 126.052 68.48C126.872 68.44 128.612 68.28 128.892 68.26C129.792 68.2 129.992 68.18 130.252 68.32L130.712 68.62C131.132 68.9 131.192 69 131.032 69.34C130.872 69.62 130.772 69.72 130.452 69.66C130.272 69.62 129.812 69.5 129.392 69.46C128.192 69.38 127.412 69.38 126.152 69.42C126.392 69.6 126.612 69.8 126.712 69.9C126.792 70.1 126.732 70.36 126.572 71.02ZM134.332 65.76V74.14L135.132 74.1C135.532 74.08 135.732 74.06 136.332 73.88C136.852 73.72 137.012 73.6 137.412 73.84L138.132 74.26C138.332 74.38 138.352 74.58 138.212 74.78L138.112 74.92C137.972 75.12 137.732 75.18 137.472 75.12C137.292 75.08 136.932 75.08 136.812 75.08H134.332V81.26C134.332 82.02 133.672 83 133.512 83.24C133.392 83.4 133.092 83.34 133.092 83.18V66.18C133.092 65.66 132.832 65.38 132.452 65.08C132.172 64.86 132.492 64.28 132.832 64.44L133.692 64.84C134.312 65.12 134.332 65.28 134.332 65.76Z" fill="white"/>
<defs>
<clipPath id="clip0_2312_13">
<rect width="157" height="20" fill="white" transform="translate(0 32)"/>
</clipPath>
</defs>
</svg>
